<svg id="SvgjsSvg1006" width="1985.5" height="533.5" xmlns="http://www.w3.org/2000/svg" version="1.1" xmlns:xlink="http://www.w3.org/1999/xlink" xmlns:svgjs="http://svgjs.com/svgjs"><defs id="SvgjsDefs1007"><pattern id="SvgjsPattern1021" x="0" y="0" width="61" height="118" patternUnits="userSpaceOnUse"><image id="SvgjsImage1022" xlink:href="https://www.processon.com/assets/images/designer/network/iphone.svg" width="61" height="118" preserveAspectRatio="none" crossOrigin="anonymous" x="0" y="0"></image></pattern><pattern id="SvgjsPattern1027" x="0" y="0" width="59.5" height="58.5" patternUnits="userSpaceOnUse"><image id="SvgjsImage1028" xlink:href="https://www.processon.com/assets/images/designer/network_azure/AzureSDK.svg" width="59.5" height="58.5" preserveAspectRatio="none" crossOrigin="anonymous" x="0" y="0"></image></pattern><pattern id="SvgjsPattern1035" x="0" y="0" width="58.5" height="58.5" patternUnits="userSpaceOnUse"><image id="SvgjsImage1036" xlink:href="https://www.processon.com/assets/images/designer/network_azure/CodeFile.svg" width="58.5" height="58.5" preserveAspectRatio="none" crossOrigin="anonymous" x="0" y="0"></image></pattern><marker id="SvgjsMarker1043" markerWidth="16" markerHeight="12" refX="16" refY="6" viewBox="0 0 16 12" orient="auto" markerUnits="userSpaceOnUse" stroke-dasharray="0,0"><path id="SvgjsPath1044" d="M0,2 L14,6 L0,11 L0,2" fill="#323232" stroke="#323232" stroke-width="2"></path></marker><marker id="SvgjsMarker1093" markerWidth="16" markerHeight="12" refX="16" refY="6" viewBox="0 0 16 12" orient="auto" markerUnits="userSpaceOnUse" stroke-dasharray="0,0"><path id="SvgjsPath1094" d="M0,2 L14,6 L0,11 L0,2" fill="#323232" stroke="#323232" stroke-width="2"></path></marker><marker id="SvgjsMarker1101" markerWidth="16" markerHeight="12" refX="16" refY="6" viewBox="0 0 16 12" orient="auto" markerUnits="userSpaceOnUse" stroke-dasharray="0,0"><path id="SvgjsPath1102" d="M0,2 L14,6 L0,11 L0,2" fill="#323232" stroke="#323232" stroke-width="2"></path></marker><marker id="SvgjsMarker1109" markerWidth="16" markerHeight="12" refX="16" refY="6" viewBox="0 0 16 12" orient="auto" markerUnits="userSpaceOnUse" stroke-dasharray="0,0"><path id="SvgjsPath1110" d="M0,2 L14,6 L0,11 L0,2" fill="#323232" stroke="#323232" stroke-width="2"></path></marker><marker id="SvgjsMarker1117" markerWidth="16" markerHeight="12" refX="16" refY="6" viewBox="0 0 16 12" orient="auto" markerUnits="userSpaceOnUse" stroke-dasharray="0,0"><path id="SvgjsPath1118" d="M0,2 L14,6 L0,11 L0,2" fill="#323232" stroke="#323232" stroke-width="2"></path></marker><marker id="SvgjsMarker1125" markerWidth="16" markerHeight="12" refX="16" refY="6" viewBox="0 0 16 12" orient="auto" markerUnits="userSpaceOnUse" stroke-dasharray="0,0"><path id="SvgjsPath1126" d="M0,2 L14,6 L0,11 L0,2" fill="#323232" stroke="#323232" stroke-width="2"></path></marker><marker id="SvgjsMarker1133" markerWidth="16" markerHeight="12" refX="16" refY="6" viewBox="0 0 16 12" orient="auto" markerUnits="userSpaceOnUse" stroke-dasharray="0,0"><path id="SvgjsPath1134" d="M0,2 L14,6 L0,11 L0,2" fill="#323232" stroke="#323232" stroke-width="2"></path></marker><marker id="SvgjsMarker1141" markerWidth="16" markerHeight="12" refX="16" refY="6" viewBox="0 0 16 12" orient="auto" markerUnits="userSpaceOnUse" stroke-dasharray="0,0"><path id="SvgjsPath1142" d="M0,2 L14,6 L0,11 L0,2" fill="#323232" stroke="#323232" stroke-width="2"></path></marker><marker id="SvgjsMarker1149" markerWidth="16" markerHeight="12" refX="16" refY="6" viewBox="0 0 16 12" orient="auto" markerUnits="userSpaceOnUse" stroke-dasharray="0,0"><path id="SvgjsPath1150" d="M0,2 L14,6 L0,11 L0,2" fill="#323232" stroke="#323232" stroke-width="2"></path></marker><marker id="SvgjsMarker1157" markerWidth="16" markerHeight="12" refX="0" refY="6" viewBox="0 0 16 12" orient="auto" markerUnits="userSpaceOnUse" stroke-dasharray="0,0"><path id="SvgjsPath1158" d="M15,1.5 L2,6 L15,10.5" fill="#323232" stroke="#323232" stroke-width="2"></path></marker><marker id="SvgjsMarker1175" markerWidth="16" markerHeight="12" refX="16" refY="6" viewBox="0 0 16 12" orient="auto" markerUnits="userSpaceOnUse" stroke-dasharray="0,0"><path id="SvgjsPath1176" d="M0,2 L14,6 L0,11 L0,2" fill="#323232" stroke="#323232" stroke-width="2"></path></marker><marker id="SvgjsMarker1189" markerWidth="16" markerHeight="12" refX="16" refY="6" viewBox="0 0 16 12" orient="auto" markerUnits="userSpaceOnUse" stroke-dasharray="0,0"><path id="SvgjsPath1190" d="M0,2 L14,6 L0,11 L0,2" fill="#323232" stroke="#323232" stroke-width="2"></path></marker><marker id="SvgjsMarker1203" markerWidth="16" markerHeight="12" refX="16" refY="6" viewBox="0 0 16 12" orient="auto" markerUnits="userSpaceOnUse" stroke-dasharray="0,0"><path id="SvgjsPath1204" d="M0,2 L14,6 L0,11 L0,2" fill="#323232" stroke="#323232" stroke-width="2"></path></marker><marker id="SvgjsMarker1211" markerWidth="16" markerHeight="12" refX="16" refY="6" viewBox="0 0 16 12" orient="auto" markerUnits="userSpaceOnUse" stroke-dasharray="0,0"><path id="SvgjsPath1212" d="M0,2 L14,6 L0,11 L0,2" fill="#323232" stroke="#323232" stroke-width="2"></path></marker><pattern id="SvgjsPattern1219" x="0" y="0" width="59.5" height="58.5" patternUnits="userSpaceOnUse"><image id="SvgjsImage1220" xlink:href="https://www.processon.com/assets/images/designer/network_azure/User.svg" width="59.5" height="58.5" preserveAspectRatio="none" crossOrigin="anonymous" x="0" y="0"></image></pattern><pattern id="SvgjsPattern1227" x="0" y="0" width="61" height="55" patternUnits="userSpaceOnUse"><image id="SvgjsImage1228" xlink:href="https://www.processon.com/assets/images/designer/network_azure/Automation.svg" width="61" height="55" preserveAspectRatio="none" crossOrigin="anonymous" x="0" y="0"></image></pattern></defs><g id="SvgjsG1008"><path id="SvgjsPath1009" d="M1706.5 89.5L1706.5 508.5" stroke-dasharray="10,5,3,5" stroke="#8a8a8a" stroke-width="2" fill="none"></path></g><g id="SvgjsG1010"><path id="SvgjsPath1011" d="M445.5 87.5L445.5 506.5" stroke-dasharray="10,5,3,5" stroke="#8a8a8a" stroke-width="2" fill="none"></path></g><g id="SvgjsG1012"><path id="SvgjsPath1013" d="M266 87.5L266 506.5" stroke-dasharray="10,5,3,5" stroke="#8a8a8a" stroke-width="2" fill="none"></path></g><g id="SvgjsG1014" transform="translate(25,206.5)"><path id="SvgjsPath1015" d="M 40 22.375C 40 -7.458333333333333 80 -7.458333333333333 80 22.375C 80 52.208333333333336 40 52.208333333333336 40 22.375M 60 44.75L 60 134.25M 60 134.25L 10 179M 60 134.25L 110 179M 0 89.5L 120 89.5" stroke="rgba(50,50,50,1)" stroke-width="2" fill-opacity="1" fill="#ffffff"></path><path id="SvgjsPath1016" d="M 0 0L 120 0L 120 179L 0 179Z" stroke="none" fill="none"></path><g id="SvgjsG1017"><text id="SvgjsText1018" font-family="微软雅黑" text-anchor="middle" font-size="13px" width="160px" fill="#323232" font-weight="400" align="middle" anchor="middle" family="微软雅黑" size="13px" weight="400" font-style="" opacity="1" y="184.05" transform="rotate(0)"></text></g></g><g id="SvgjsG1019" transform="translate(326,237)"><path id="SvgjsPath1020" d="M 0 0L 61 0L 61 118L 0 118Z" stroke="none" fill="url(#SvgjsPattern1021)"></path><g id="SvgjsG1023"><text id="SvgjsText1024" font-family="微软雅黑" text-anchor="middle" font-size="13px" width="101px" fill="#323232" font-weight="400" align="middle" anchor="middle" family="微软雅黑" size="13px" weight="400" font-style="" opacity="1" y="123.05" transform="rotate(0)"></text></g></g><g id="SvgjsG1025" transform="translate(1162.5,25)"><path id="SvgjsPath1026" d="M 0 0L 59.5 0L 59.5 58.5L 0 58.5Z" stroke="none" fill="url(#SvgjsPattern1027)"></path><g id="SvgjsG1029"><text id="SvgjsText1030" font-family="微软雅黑" text-anchor="middle" font-size="13px" width="100px" fill="#323232" font-weight="400" align="middle" anchor="middle" family="微软雅黑" size="13px" weight="400" font-style="" opacity="1" y="63.55" transform="rotate(0)"><tspan id="SvgjsTspan1031" dy="16" x="30"><tspan id="SvgjsTspan1032" style="text-decoration:;">系统软件</tspan></tspan></text></g></g><g id="SvgjsG1033" transform="translate(1825.5,25)"><path id="SvgjsPath1034" d="M 0 0L 58.5 0L 58.5 58.5L 0 58.5Z" stroke="none" fill="url(#SvgjsPattern1035)"></path><g id="SvgjsG1037"><text id="SvgjsText1038" font-family="微软雅黑" text-anchor="middle" font-size="13px" width="99px" fill="#323232" font-weight="400" align="middle" anchor="middle" family="微软雅黑" size="13px" weight="400" font-style="" opacity="1" y="63.55" transform="rotate(0)"><tspan id="SvgjsTspan1039" dy="16" x="29.5"><tspan id="SvgjsTspan1040" style="text-decoration:;">开发者程序</tspan></tspan></text></g></g><g id="SvgjsG1041"><path id="SvgjsPath1042" d="M145 296L235.5 296L235.5 296L326 296" stroke="#323232" stroke-width="2" fill="none" marker-end="url(#SvgjsMarker1043)"></path><rect id="SvgjsRect1045" width="65" height="16" x="203" y="288" fill="#ffffff"></rect><text id="SvgjsText1046" font-family="微软雅黑" text-anchor="middle" font-size="13px" width="65px" fill="#323232" font-weight="400" align="top" anchor="middle" family="微软雅黑" size="13px" weight="400" font-style="" opacity="1" y="286.05" transform="rotate(0)"><tspan id="SvgjsTspan1047" dy="16" x="235.5"><tspan id="SvgjsTspan1048" style="text-decoration:;">1. 感官输入</tspan></tspan></text></g><g id="SvgjsG1049" transform="translate(520,267.5)"><path id="SvgjsPath1050" d="M 0 4Q 0 0 4 0L 112 0Q 116 0 116 4L 116 54Q 116 58 112 58L 4 58Q 0 58 0 54Z" stroke="rgba(50,50,50,1)" stroke-width="2" fill-opacity="1" fill="#ffffff"></path><g id="SvgjsG1051"><text id="SvgjsText1052" font-family="微软雅黑" text-anchor="middle" font-size="13px" width="96px" fill="#323232" font-weight="400" align="middle" anchor="middle" family="微软雅黑" size="13px" weight="400" font-style="" opacity="1" y="19.05" transform="rotate(0)"><tspan id="SvgjsTspan1053" dy="16" x="58"><tspan id="SvgjsTspan1054" style="text-decoration:;">ViewRootImpl</tspan></tspan></text></g></g><g id="SvgjsG1055" transform="translate(756.5,267.5)"><path id="SvgjsPath1056" d="M 0 4Q 0 0 4 0L 112 0Q 116 0 116 4L 116 54Q 116 58 112 58L 4 58Q 0 58 0 54Z" stroke="rgba(50,50,50,1)" stroke-width="2" fill-opacity="1" fill="#ffffff"></path><g id="SvgjsG1057"><text id="SvgjsText1058" font-family="微软雅黑" text-anchor="middle" font-size="13px" width="96px" fill="#323232" font-weight="400" align="middle" anchor="middle" family="微软雅黑" size="13px" weight="400" font-style="" opacity="1" y="19.05" transform="rotate(0)"><tspan id="SvgjsTspan1059" dy="16" x="58"><tspan id="SvgjsTspan1060" style="text-decoration:;">DecorView</tspan></tspan></text></g></g><g id="SvgjsG1061" transform="translate(723.5,388.5)"><path id="SvgjsPath1062" d="M 0 4Q 0 0 4 0L 178 0Q 182 0 182 4L 182 54Q 182 58 178 58L 4 58Q 0 58 0 54Z" stroke="rgba(50,50,50,1)" stroke-width="2" fill-opacity="1" fill="#ffffff"></path><g id="SvgjsG1063"><text id="SvgjsText1064" font-family="微软雅黑" text-anchor="middle" font-size="13px" width="162px" fill="#323232" font-weight="400" align="middle" anchor="middle" family="微软雅黑" size="13px" weight="400" font-style="" opacity="1" y="19.05" transform="rotate(0)"><tspan id="SvgjsTspan1065" dy="16" x="91"><tspan id="SvgjsTspan1066" style="text-decoration:;">WindowCallbackWrapper</tspan></tspan></text></g></g><g id="SvgjsG1067" transform="translate(1029.5,388.5)"><path id="SvgjsPath1068" d="M 0 4Q 0 0 4 0L 112 0Q 116 0 116 4L 116 54Q 116 58 112 58L 4 58Q 0 58 0 54Z" stroke="rgba(50,50,50,1)" stroke-width="2" fill-opacity="1" fill="#ffffff"></path><g id="SvgjsG1069"><text id="SvgjsText1070" font-family="微软雅黑" text-anchor="middle" font-size="13px" width="96px" fill="#323232" font-weight="400" align="middle" anchor="middle" family="微软雅黑" size="13px" weight="400" font-style="" opacity="1" y="19.05" transform="rotate(0)"><tspan id="SvgjsTspan1071" dy="16" x="58"><tspan id="SvgjsTspan1072" style="text-decoration:;">Activity</tspan></tspan></text></g></g><g id="SvgjsG1073" transform="translate(1236.5,267.5)"><path id="SvgjsPath1074" d="M 0 4Q 0 0 4 0L 115.5 0Q 119.5 0 119.5 4L 119.5 54Q 119.5 58 115.5 58L 4 58Q 0 58 0 54Z" stroke="rgba(50,50,50,1)" stroke-width="2" fill-opacity="1" fill="#ffffff"></path><g id="SvgjsG1075"><text id="SvgjsText1076" font-family="微软雅黑" text-anchor="middle" font-size="13px" width="100px" fill="#323232" font-weight="400" align="middle" anchor="middle" family="微软雅黑" size="13px" weight="400" font-style="" opacity="1" y="19.05" transform="rotate(0)"><tspan id="SvgjsTspan1077" dy="16" x="60"><tspan id="SvgjsTspan1078" style="text-decoration:;">View</tspan></tspan></text></g></g><g id="SvgjsG1079" transform="translate(996.5,267.5)"><path id="SvgjsPath1080" d="M 0 4Q 0 0 4 0L 117.5 0Q 121.5 0 121.5 4L 121.5 54Q 121.5 58 117.5 58L 4 58Q 0 58 0 54Z" stroke="rgba(50,50,50,1)" stroke-width="2" fill-opacity="1" fill="#ffffff"></path><g id="SvgjsG1081"><text id="SvgjsText1082" font-family="微软雅黑" text-anchor="middle" font-size="13px" width="102px" fill="#323232" font-weight="400" align="middle" anchor="middle" family="微软雅黑" size="13px" weight="400" font-style="" opacity="1" y="19.05" transform="rotate(0)"><tspan id="SvgjsTspan1083" dy="16" x="61"><tspan id="SvgjsTspan1084" style="text-decoration:;">ViewGroup</tspan></tspan></text></g></g><g id="SvgjsG1085" transform="translate(1268.5,388.5)"><path id="SvgjsPath1086" d="M 0 4Q 0 0 4 0L 112 0Q 116 0 116 4L 116 54Q 116 58 112 58L 4 58Q 0 58 0 54Z" stroke="rgba(50,50,50,1)" stroke-width="2" fill-opacity="1" fill="#ffffff"></path><g id="SvgjsG1087"><text id="SvgjsText1088" font-family="微软雅黑" text-anchor="middle" font-size="13px" width="96px" fill="#323232" font-weight="400" align="middle" anchor="middle" family="微软雅黑" size="13px" weight="400" font-style="" opacity="1" y="19.05" transform="rotate(0)"><tspan id="SvgjsTspan1089" dy="16" x="58"><tspan id="SvgjsTspan1090" style="text-decoration:;">PhoneWindow</tspan></tspan></text></g></g><g id="SvgjsG1091"><path id="SvgjsPath1092" d="M387 296L453.5 296L453.5 296.5L520 296.5" stroke="#323232" stroke-width="2" fill="none" marker-end="url(#SvgjsMarker1093)"></path><rect id="SvgjsRect1095" width="48" height="16" x="429.5" y="288.25" fill="#ffffff"></rect><text id="SvgjsText1096" font-family="微软雅黑" text-anchor="middle" font-size="13px" width="48px" fill="#323232" font-weight="400" align="top" anchor="middle" family="微软雅黑" size="13px" weight="400" font-style="" opacity="1" y="286.3" transform="rotate(0)"><tspan id="SvgjsTspan1097" dy="16" x="453.5"><tspan id="SvgjsTspan1098" style="text-decoration:;">2. event</tspan></tspan></text></g><g id="SvgjsG1099"><path id="SvgjsPath1100" d="M636 296.5L696.25 296.5L696.25 296.5L756.5 296.5" stroke="#323232" stroke-width="2" fill="none" marker-end="url(#SvgjsMarker1101)"></path><rect id="SvgjsRect1103" width="48" height="16" x="672.25" y="288.5" fill="#ffffff"></rect><text id="SvgjsText1104" font-family="微软雅黑" text-anchor="middle" font-size="13px" width="48px" fill="#323232" font-weight="400" align="top" anchor="middle" family="微软雅黑" size="13px" weight="400" font-style="" opacity="1" y="286.55" transform="rotate(0)"><tspan id="SvgjsTspan1105" dy="16" x="696.25"><tspan id="SvgjsTspan1106" style="text-decoration:;">3. event</tspan></tspan></text></g><g id="SvgjsG1107"><path id="SvgjsPath1108" d="M814.5 325.5L814.5 357L814.5 357L814.5 388.5" stroke="#323232" stroke-width="2" fill="none" marker-end="url(#SvgjsMarker1109)"></path><rect id="SvgjsRect1111" width="48" height="16" x="790.5" y="349" fill="#ffffff"></rect><text id="SvgjsText1112" font-family="微软雅黑" text-anchor="middle" font-size="13px" width="48px" fill="#323232" font-weight="400" align="top" anchor="middle" family="微软雅黑" size="13px" weight="400" font-style="" opacity="1" y="347.05" transform="rotate(0)"><tspan id="SvgjsTspan1113" dy="16" x="814.5"><tspan id="SvgjsTspan1114" style="text-decoration:;">4. event</tspan></tspan></text></g><g id="SvgjsG1115"><path id="SvgjsPath1116" d="M905.5 417.5L967.5 417.5L967.5 417.5L1029.5 417.5" stroke="#323232" stroke-width="2" fill="none" marker-end="url(#SvgjsMarker1117)"></path><rect id="SvgjsRect1119" width="48" height="16" x="943.5" y="409.5" fill="#ffffff"></rect><text id="SvgjsText1120" font-family="微软雅黑" text-anchor="middle" font-size="13px" width="48px" fill="#323232" font-weight="400" align="top" anchor="middle" family="微软雅黑" size="13px" weight="400" font-style="" opacity="1" y="407.55" transform="rotate(0)"><tspan id="SvgjsTspan1121" dy="16" x="967.5"><tspan id="SvgjsTspan1122" style="text-decoration:;">5. event</tspan></tspan></text></g><g id="SvgjsG1123"><path id="SvgjsPath1124" d="M1145.5 417.5L1207 417.5L1207 417.5L1268.5 417.5" stroke="#323232" stroke-width="2" fill="none" marker-end="url(#SvgjsMarker1125)"></path><rect id="SvgjsRect1127" width="48" height="16" x="1183" y="409.5" fill="#ffffff"></rect><text id="SvgjsText1128" font-family="微软雅黑" text-anchor="middle" font-size="13px" width="48px" fill="#323232" font-weight="400" align="top" anchor="middle" family="微软雅黑" size="13px" weight="400" font-style="" opacity="1" y="407.55" transform="rotate(0)"><tspan id="SvgjsTspan1129" dy="16" x="1207"><tspan id="SvgjsTspan1130" style="text-decoration:;">6. event</tspan></tspan></text></g><g id="SvgjsG1131"><path id="SvgjsPath1132" d="M1326.5 388.5L1326.5 357L851 357L851 325.5" stroke="#323232" stroke-width="2" fill="none" marker-end="url(#SvgjsMarker1133)"></path><rect id="SvgjsRect1135" width="47" height="16" x="1065.25" y="349" fill="#ffffff"></rect><text id="SvgjsText1136" font-family="微软雅黑" text-anchor="middle" font-size="13px" width="47px" fill="#323232" font-weight="400" align="top" anchor="middle" family="微软雅黑" size="13px" weight="400" font-style="" opacity="1" y="347.05" transform="rotate(0)"><tspan id="SvgjsTspan1137" dy="16" x="1088.75"><tspan id="SvgjsTspan1138" style="text-decoration:;">7. event</tspan></tspan></text></g><g id="SvgjsG1139"><path id="SvgjsPath1140" d="M872.5 296.5L934.5 296.5L934.5 296.5L996.5 296.5" stroke="#323232" stroke-width="2" fill="none" marker-end="url(#SvgjsMarker1141)"></path><rect id="SvgjsRect1143" width="48" height="16" x="910.5" y="288.5" fill="#ffffff"></rect><text id="SvgjsText1144" font-family="微软雅黑" text-anchor="middle" font-size="13px" width="48px" fill="#323232" font-weight="400" align="top" anchor="middle" family="微软雅黑" size="13px" weight="400" font-style="" opacity="1" y="286.55" transform="rotate(0)"><tspan id="SvgjsTspan1145" dy="16" x="934.5"><tspan id="SvgjsTspan1146" style="text-decoration:;">8. event</tspan></tspan></text></g><g id="SvgjsG1147"><path id="SvgjsPath1148" d="M1118 296.5L1177.25 296.5L1177.25 296.5L1236.5 296.5" stroke="#323232" stroke-width="2" fill="none" marker-end="url(#SvgjsMarker1149)"></path><rect id="SvgjsRect1151" width="53" height="16" x="1150.75" y="288.5" fill="#ffffff"></rect><text id="SvgjsText1152" font-family="微软雅黑" text-anchor="middle" font-size="13px" width="53px" fill="#323232" font-weight="400" align="top" anchor="middle" family="微软雅黑" size="13px" weight="400" font-style="" opacity="1" y="286.55" transform="rotate(0)"><tspan id="SvgjsTspan1153" dy="16" x="1177.25"><tspan id="SvgjsTspan1154" style="text-decoration:;">10. event</tspan></tspan></text></g><g id="SvgjsG1155"><path id="SvgjsPath1156" d="M107 228L216.5 228L216.5 256.5L326 256.5" stroke="#323232" stroke-width="2" fill="none" marker-start="url(#SvgjsMarker1157)"></path><rect id="SvgjsRect1159" width="73" height="16" x="180" y="234.25" fill="#ffffff"></rect><text id="SvgjsText1160" font-family="微软雅黑" text-anchor="middle" font-size="13px" width="73px" fill="#323232" font-weight="400" align="top" anchor="middle" family="微软雅黑" size="13px" weight="400" font-style="" opacity="1" y="232.3" transform="rotate(0)"><tspan id="SvgjsTspan1161" dy="16" x="216.5"><tspan id="SvgjsTspan1162" style="text-decoration:;">15. 感官输出</tspan></tspan></text></g><g id="SvgjsG1163" transform="translate(1478,267.5)"><path id="SvgjsPath1164" d="M 0 0L 182 0L 182 58L 0 58Z" stroke="rgba(50,50,50,1)" stroke-width="2" fill-opacity="1" fill="#ffffff"></path><g id="SvgjsG1165"><text id="SvgjsText1166" font-family="微软雅黑" text-anchor="middle" font-size="13px" width="162px" fill="#323232" font-weight="400" align="middle" anchor="middle" family="微软雅黑" size="13px" weight="400" font-style="" opacity="1" y="3.05" transform="rotate(0)"><tspan id="SvgjsTspan1167" dy="16" x="91"><tspan id="SvgjsTspan1168" style="text-decoration:;">OnClickListener&lt;/br&gt;OnL</tspan></tspan><tspan id="SvgjsTspan1169" dy="16" x="91"><tspan id="SvgjsTspan1170" style="text-decoration:;">ongClickListener&lt;/br&gt;OnT</tspan></tspan><tspan id="SvgjsTspan1171" dy="16" x="91"><tspan id="SvgjsTspan1172" style="text-decoration:;">ouchListener</tspan></tspan></text></g></g><g id="SvgjsG1173"><path id="SvgjsPath1174" d="M1356 296.5L1478 296.5" stroke="#323232" stroke-width="2" fill="none" marker-end="url(#SvgjsMarker1175)"></path><rect id="SvgjsRect1177" width="70" height="16" x="1382" y="288.5" fill="#ffffff"></rect><text id="SvgjsText1178" font-family="微软雅黑" text-anchor="middle" font-size="13px" width="70px" fill="#323232" font-weight="400" align="top" anchor="middle" family="微软雅黑" size="13px" weight="400" font-style="" opacity="1" y="286.55" transform="rotate(0)"><tspan id="SvgjsTspan1179" dy="16" x="1417"><tspan id="SvgjsTspan1180" style="text-decoration:;">11. 监听回调</tspan></tspan></text></g><g id="SvgjsG1181" transform="translate(1101.25,148.5)"><path id="SvgjsPath1182" d="M 0 0L 182 0L 182 58L 0 58Z" stroke="rgba(50,50,50,1)" stroke-width="2" fill-opacity="1" fill="#ffffff"></path><g id="SvgjsG1183"><text id="SvgjsText1184" font-family="微软雅黑" text-anchor="middle" font-size="13px" width="162px" fill="#323232" font-weight="400" align="middle" anchor="middle" family="微软雅黑" size="13px" weight="400" font-style="" opacity="1" y="19.05" transform="rotate(0)"><tspan id="SvgjsTspan1185" dy="16" x="91"><tspan id="SvgjsTspan1186" style="text-decoration:;">UI&lt;/br&gt;音频</tspan></tspan></text></g></g><g id="SvgjsG1187"><path id="SvgjsPath1188" d="M1101.25 177.5L744.125 177.5L744.125 258.5L387 258.5" stroke="#323232" stroke-width="2" fill="none" marker-end="url(#SvgjsMarker1189)"></path><rect id="SvgjsRect1191" width="65" height="16" x="711.625" y="210" fill="#ffffff"></rect><text id="SvgjsText1192" font-family="微软雅黑" text-anchor="middle" font-size="13px" width="65px" fill="#323232" font-weight="400" align="top" anchor="middle" family="微软雅黑" size="13px" weight="400" font-style="" opacity="1" y="208.05" transform="rotate(0)"><tspan id="SvgjsTspan1193" dy="16" x="744.125"><tspan id="SvgjsTspan1194" style="text-decoration:;">14. 硬件api</tspan></tspan></text></g><g id="SvgjsG1195" transform="translate(1778.5,267.5)"><path id="SvgjsPath1196" d="M 0 0L 182 0L 182 58L 0 58Z" stroke="rgba(50,50,50,1)" stroke-width="2" fill-opacity="1" fill="#ffffff"></path><g id="SvgjsG1197"><text id="SvgjsText1198" font-family="微软雅黑" text-anchor="middle" font-size="13px" width="162px" fill="#323232" font-weight="400" align="middle" anchor="middle" family="微软雅黑" size="13px" weight="400" font-style="" opacity="1" y="19.05" transform="rotate(0)"><tspan id="SvgjsTspan1199" dy="16" x="91"><tspan id="SvgjsTspan1200" style="text-decoration:;">逻辑处理</tspan></tspan></text></g></g><g id="SvgjsG1201"><path id="SvgjsPath1202" d="M1660 296.5L1719.25 296.5L1719.25 296.5L1778.5 296.5" stroke="#323232" stroke-width="2" fill="none" marker-end="url(#SvgjsMarker1203)"></path><rect id="SvgjsRect1205" width="73" height="16" x="1682.75" y="288.5" fill="#ffffff"></rect><text id="SvgjsText1206" font-family="微软雅黑" text-anchor="middle" font-size="13px" width="73px" fill="#323232" font-weight="400" align="top" anchor="middle" family="微软雅黑" size="13px" weight="400" font-style="" opacity="1" y="286.55" transform="rotate(0)"><tspan id="SvgjsTspan1207" dy="16" x="1719.25"><tspan id="SvgjsTspan1208" style="text-decoration:;">12. 触发调用</tspan></tspan></text></g><g id="SvgjsG1209"><path id="SvgjsPath1210" d="M1869.5 267.5L1869.5 177.5L1283.25 177.5" stroke="#323232" stroke-width="2" fill="none" marker-end="url(#SvgjsMarker1211)"></path><rect id="SvgjsRect1213" width="73" height="16" x="1584.875" y="169.5" fill="#ffffff"></rect><text id="SvgjsText1214" font-family="微软雅黑" text-anchor="middle" font-size="13px" width="73px" fill="#323232" font-weight="400" align="top" anchor="middle" family="微软雅黑" size="13px" weight="400" font-style="" opacity="1" y="167.55" transform="rotate(0)"><tspan id="SvgjsTspan1215" dy="16" x="1621.375"><tspan id="SvgjsTspan1216" style="text-decoration:;">13. 逻辑输出</tspan></tspan></text></g><g id="SvgjsG1217" transform="translate(55.25,25)"><path id="SvgjsPath1218" d="M 0 0L 59.5 0L 59.5 58.5L 0 58.5Z" stroke="none" fill="url(#SvgjsPattern1219)"></path><g id="SvgjsG1221"><text id="SvgjsText1222" font-family="微软雅黑" text-anchor="middle" font-size="13px" width="100px" fill="#323232" font-weight="400" align="middle" anchor="middle" family="微软雅黑" size="13px" weight="400" font-style="" opacity="1" y="63.55" transform="rotate(0)"><tspan id="SvgjsTspan1223" dy="16" x="30"><tspan id="SvgjsTspan1224" style="text-decoration:;">用户</tspan></tspan></text></g></g><g id="SvgjsG1225" transform="translate(326,28.5)"><path id="SvgjsPath1226" d="M 0 0L 61 0L 61 55L 0 55Z" stroke="none" fill="url(#SvgjsPattern1227)"></path><g id="SvgjsG1229"><text id="SvgjsText1230" font-family="微软雅黑" text-anchor="middle" font-size="13px" width="101px" fill="#323232" font-weight="400" align="middle" anchor="middle" family="微软雅黑" size="13px" weight="400" font-style="" opacity="1" y="60.05" transform="rotate(0)"><tspan id="SvgjsTspan1231" dy="16" x="30.5"><tspan id="SvgjsTspan1232" style="text-decoration:;">手机硬件</tspan></tspan></text></g></g></svg>